<svg width="20" height="21" viewBox="0 0 20 21" fill="none" xmlns="http://www.w3.org/2000/svg">
<path d="M12.1669 18.25C11.9169 18.4384 11.6511 18.6367 11.4252 18.8334H13.3336C13.5546 18.8334 13.7666 18.9212 13.9228 19.0774C14.0791 19.2337 14.1669 19.4457 14.1669 19.6667C14.1669 19.8877 14.0791 20.0997 13.9228 20.2559C13.7666 20.4122 13.5546 20.5 13.3336 20.5H10.0002C9.77923 20.5 9.56727 20.4122 9.41099 20.2559C9.25471 20.0997 9.16691 19.8877 9.16691 19.6667C9.16691 18.4167 10.2294 17.62 11.1669 16.9167C11.7919 16.4484 12.5002 15.9167 12.5002 15.5C12.5002 15.279 12.4124 15.067 12.2562 14.9108C12.0999 14.7545 11.8879 14.6667 11.6669 14.6667C11.4459 14.6667 11.2339 14.7545 11.0777 14.9108C10.9214 15.067 10.8336 15.279 10.8336 15.5C10.8336 15.721 10.7458 15.933 10.5895 16.0893C10.4332 16.2456 10.2213 16.3334 10.0002 16.3334C9.77923 16.3334 9.56727 16.2456 9.41099 16.0893C9.25471 15.933 9.16691 15.721 9.16691 15.5C9.16691 14.837 9.4303 14.2011 9.89914 13.7323C10.368 13.2634 11.0039 13 11.6669 13C12.33 13 12.9658 13.2634 13.4347 13.7323C13.9035 14.2011 14.1669 14.837 14.1669 15.5C14.1669 16.75 13.1044 17.5467 12.1669 18.25ZM19.1669 13C18.9459 13 18.7339 13.0878 18.5777 13.2441C18.4214 13.4004 18.3336 13.6123 18.3336 13.8334V16.3334H17.5002C17.2792 16.3334 17.0673 16.2456 16.911 16.0893C16.7547 15.933 16.6669 15.721 16.6669 15.5V13.8334C16.6669 13.6123 16.5791 13.4004 16.4228 13.2441C16.2666 13.0878 16.0546 13 15.8336 13C15.6126 13 15.4006 13.0878 15.2443 13.2441C15.088 13.4004 15.0002 13.6123 15.0002 13.8334V15.5C15.0002 16.1631 15.2636 16.7989 15.7325 17.2678C16.2013 17.7366 16.8372 18 17.5002 18H18.3336V19.6667C18.3336 19.8877 18.4214 20.0997 18.5777 20.2559C18.7339 20.4122 18.9459 20.5 19.1669 20.5C19.3879 20.5 19.5999 20.4122 19.7562 20.2559C19.9124 20.0997 20.0002 19.8877 20.0002 19.6667V13.8334C20.0002 13.6123 19.9124 13.4004 19.7562 13.2441C19.5999 13.0878 19.3879 13 19.1669 13ZM10.8336 10.5V6.33335C10.8336 6.11234 10.7458 5.90038 10.5895 5.7441C10.4332 5.58782 10.2213 5.50002 10.0002 5.50002C9.77923 5.50002 9.56727 5.58782 9.41099 5.7441C9.25471 5.90038 9.16691 6.11234 9.16691 6.33335V9.66669H6.66691C6.4459 9.66669 6.23393 9.75448 6.07765 9.91076C5.92137 10.067 5.83358 10.279 5.83358 10.5C5.83358 10.721 5.92137 10.933 6.07765 11.0893C6.23393 11.2456 6.4459 11.3334 6.66691 11.3334H10.0002C10.2213 11.3334 10.4332 11.2456 10.5895 11.0893C10.7458 10.933 10.8336 10.721 10.8336 10.5ZM19.1669 2.16669C18.9459 2.16669 18.7339 2.25448 18.5777 2.41076C18.4214 2.56704 18.3336 2.77901 18.3336 3.00002V4.97835C17.4653 3.668 16.3003 2.58079 14.9332 1.80494C13.5661 1.02909 12.0354 0.586457 10.4652 0.512954C8.89496 0.43945 7.32955 0.737147 5.89593 1.38189C4.46232 2.02663 3.2009 3.00026 2.21401 4.22377C1.22712 5.44729 0.542562 6.88622 0.215887 8.42382C-0.110789 9.96142 -0.0703837 11.5544 0.333824 13.0734C0.738032 14.5925 1.49466 15.9949 2.54231 17.1668C3.58996 18.3387 4.89912 19.2471 6.36358 19.8184C6.46036 19.8557 6.56318 19.8749 6.66691 19.875C6.86138 19.8753 7.04982 19.8076 7.19962 19.6836C7.34941 19.5596 7.45112 19.3871 7.48712 19.196C7.52313 19.0049 7.49116 18.8072 7.39677 18.6372C7.30237 18.4672 7.15149 18.3355 6.97024 18.265C5.72693 17.7843 4.61709 17.0122 3.7339 16.0138C2.8507 15.0153 2.21992 13.8195 1.8945 12.5269C1.56908 11.2342 1.55853 9.88226 1.86372 8.58463C2.16891 7.28701 2.78095 6.08154 3.64845 5.06941C4.51595 4.05728 5.6136 3.26803 6.84925 2.76792C8.0849 2.2678 9.42251 2.0714 10.7498 2.19522C12.077 2.31905 13.3552 2.75947 14.4771 3.47951C15.5989 4.19956 16.5316 5.17823 17.1969 6.33335H15.0002C14.7792 6.33335 14.5673 6.42115 14.411 6.57743C14.2547 6.73371 14.1669 6.94567 14.1669 7.16669C14.1669 7.3877 14.2547 7.59966 14.411 7.75594C14.5673 7.91222 14.7792 8.00002 15.0002 8.00002H17.5002C18.1633 8.00002 18.7992 7.73663 19.268 7.26779C19.7369 6.79895 20.0002 6.16306 20.0002 5.50002V3.00002C20.0002 2.77901 19.9124 2.56704 19.7562 2.41076C19.5999 2.25448 19.3879 2.16669 19.1669 2.16669Z" fill="#B40219"/>
</svg>
