<svg width="7" height="13" viewBox="0 0 7 13" fill="none" xmlns="http://www.w3.org/2000/svg">
<path d="M6.15829 12.0917C6.23639 12.0142 6.29839 11.922 6.3407 11.8205C6.383 11.7189 6.40478 11.61 6.40478 11.5C6.40478 11.39 6.383 11.2811 6.3407 11.1795C6.29839 11.078 6.23639 10.9858 6.15829 10.9083L2.34162 7.09168C2.26351 7.01421 2.20152 6.92204 2.15921 6.82049C2.1169 6.71894 2.09512 6.61002 2.09512 6.50001C2.09512 6.39 2.1169 6.28108 2.15921 6.17953C2.20152 6.07798 2.26351 5.98581 2.34162 5.90834L6.15829 2.09168C6.23639 2.01421 6.29839 1.92204 6.3407 1.82049C6.383 1.71894 6.40479 1.61002 6.40479 1.50001C6.40479 1.39 6.383 1.28108 6.3407 1.17953C6.29839 1.07798 6.23639 0.985812 6.15829 0.908343C6.00215 0.753134 5.79094 0.666016 5.57079 0.666016C5.35063 0.666016 5.13942 0.753134 4.98329 0.908343L1.15829 4.73334C0.690118 5.20209 0.427152 5.83751 0.427152 6.50001C0.427152 7.16251 0.690118 7.79792 1.15829 8.26668L4.98329 12.0917C5.13942 12.2469 5.35063 12.334 5.57079 12.334C5.79094 12.334 6.00215 12.2469 6.15829 12.0917Z" fill="#1D55B7"/>
</svg>
