<svg width="24" height="24" viewBox="0 0 24 24" fill="none" xmlns="http://www.w3.org/2000/svg">
<path d="M12.71 17.7101C12.6163 17.6171 12.5419 17.5065 12.4911 17.3846C12.4403 17.2628 12.4142 17.1321 12.4142 17.0001C12.4142 16.868 12.4403 16.7373 12.4911 16.6155C12.5419 16.4936 12.6163 16.383 12.71 16.2901L16 13.0001L6 13.0001C5.73478 13.0001 5.48043 12.8947 5.29289 12.7072C5.10536 12.5196 5 12.2653 5 12.0001C5 11.7348 5.10536 11.4805 5.29289 11.293C5.48043 11.1054 5.73478 11.0001 6 11.0001L16 11.0001L12.71 7.71006C12.6163 7.6171 12.5419 7.5065 12.4911 7.38464C12.4403 7.26278 12.4142 7.13207 12.4142 7.00006C12.4142 6.86805 12.4403 6.73734 12.4911 6.61548C12.5419 6.49362 12.6163 6.38302 12.71 6.29006C12.8974 6.10381 13.1508 5.99927 13.415 5.99927C13.6792 5.99927 13.9326 6.10381 14.12 6.29006L18.41 10.5901C18.7856 10.9634 18.9978 11.4705 19 12.0001C18.9951 12.5262 18.7832 13.0292 18.41 13.4001L14.12 17.7001C13.934 17.8876 13.6813 17.994 13.4171 17.9959C13.1529 17.9977 12.8987 17.895 12.71 17.7101Z" fill="white"/>
</svg>
