<svg width="24" height="24" viewBox="0 0 24 24" fill="none" xmlns="http://www.w3.org/2000/svg">
<path d="M11.29 17.7101C11.3837 17.6171 11.4581 17.5065 11.5089 17.3846C11.5597 17.2628 11.5858 17.1321 11.5858 17.0001C11.5858 16.868 11.5597 16.7373 11.5089 16.6155C11.4581 16.4936 11.3837 16.383 11.29 16.2901L8 13.0001L18 13.0001C18.2652 13.0001 18.5196 12.8947 18.7071 12.7072C18.8946 12.5196 19 12.2653 19 12.0001C19 11.7348 18.8946 11.4805 18.7071 11.293C18.5196 11.1054 18.2652 11.0001 18 11.0001L8 11.0001L11.29 7.71006C11.3837 7.6171 11.4581 7.5065 11.5089 7.38464C11.5597 7.26278 11.5858 7.13207 11.5858 7.00006C11.5858 6.86805 11.5597 6.73734 11.5089 6.61548C11.4581 6.49362 11.3837 6.38302 11.29 6.29006C11.1026 6.10381 10.8492 5.99927 10.585 5.99927C10.3208 5.99927 10.0674 6.10381 9.88 6.29006L5.59 10.5901C5.21441 10.9634 5.00223 11.4705 5 12.0001C5.00486 12.5262 5.21684 13.0292 5.59 13.4001L9.88 17.7001C10.066 17.8876 10.3187 17.994 10.5829 17.9959C10.8471 17.9977 11.1013 17.895 11.29 17.7101Z" fill="white"/>
</svg>
