<svg width="12" height="7" viewBox="0 0 12 7" fill="none" xmlns="http://www.w3.org/2000/svg">
<path d="M11.5917 0.341668C11.5142 0.263561 11.422 0.201565 11.3205 0.159258C11.2189 0.116951 11.11 0.0951691 11 0.0951691C10.89 0.0951691 10.7811 0.116951 10.6795 0.159258C10.578 0.201565 10.4858 0.263561 10.4083 0.341668L6.59168 4.15833C6.51421 4.23644 6.42204 4.29844 6.32049 4.34074C6.21894 4.38305 6.11002 4.40483 6.00001 4.40483C5.89 4.40483 5.78108 4.38305 5.67953 4.34074C5.57798 4.29844 5.48581 4.23644 5.40834 4.15833L1.59168 0.341668C1.51421 0.263561 1.42204 0.201565 1.32049 0.159258C1.21894 0.116951 1.11002 0.0951691 1.00001 0.0951691C0.889999 0.0951691 0.781078 0.116951 0.679529 0.159258C0.577979 0.201565 0.485812 0.263561 0.408343 0.341668C0.253134 0.497803 0.166016 0.709013 0.166016 0.929168C0.166016 1.14932 0.253134 1.36053 0.408343 1.51667L4.23334 5.34167C4.70209 5.80984 5.33751 6.0728 6.00001 6.0728C6.66251 6.0728 7.29792 5.80984 7.76668 5.34167L11.5917 1.51667C11.7469 1.36053 11.834 1.14932 11.834 0.929168C11.834 0.709013 11.7469 0.497803 11.5917 0.341668Z" fill="white"/>
</svg>
