<svg width="12" height="7" viewBox="0 0 12 7" fill="none" xmlns="http://www.w3.org/2000/svg">
<path d="M11.5917 0.341713C11.5142 0.263606 11.422 0.201611 11.3205 0.159304C11.2189 0.116997 11.11 0.0952148 11 0.0952148C10.89 0.0952148 10.7811 0.116997 10.6795 0.159304C10.578 0.201611 10.4858 0.263606 10.4083 0.341713L6.59168 4.15838C6.51421 4.23649 6.42204 4.29848 6.32049 4.34079C6.21894 4.3831 6.11002 4.40488 6.00001 4.40488C5.89 4.40488 5.78108 4.3831 5.67953 4.34079C5.57798 4.29848 5.48581 4.23649 5.40834 4.15838L1.59168 0.341713C1.51421 0.263606 1.42204 0.201611 1.32049 0.159304C1.21894 0.116997 1.11002 0.0952148 1.00001 0.0952148C0.889999 0.0952148 0.781078 0.116997 0.679529 0.159304C0.577979 0.201611 0.485812 0.263606 0.408343 0.341713C0.253134 0.497849 0.166016 0.709059 0.166016 0.929213C0.166016 1.14937 0.253134 1.36058 0.408343 1.51671L4.23334 5.34171C4.70209 5.80988 5.33751 6.07285 6.00001 6.07285C6.66251 6.07285 7.29792 5.80988 7.76668 5.34171L11.5917 1.51671C11.7469 1.36058 11.834 1.14937 11.834 0.929213C11.834 0.709059 11.7469 0.497849 11.5917 0.341713Z" fill="#1D55B7"/>
</svg>
