<svg width="19" height="19" viewBox="0 0 19 19" fill="none" xmlns="http://www.w3.org/2000/svg">
<g clip-path="url(#clip0_52_70)">
<path d="M18.4655 4.65674L12.152 10.9702C11.448 11.6724 10.4943 12.0668 9.5 12.0668C8.50569 12.0668 7.55197 11.6724 6.848 10.9702L0.5345 4.65674C0.524 4.77524 0.5 4.88249 0.5 5.00024V14.0002C0.501191 14.9944 0.896661 15.9476 1.59966 16.6506C2.30267 17.3536 3.2558 17.749 4.25 17.7502H14.75C15.7442 17.749 16.6973 17.3536 17.4003 16.6506C18.1033 15.9476 18.4988 14.9944 18.5 14.0002V5.00024C18.5 4.88249 18.476 4.77524 18.4655 4.65674Z" fill="white"/>
<path d="M11.0916 9.9095L17.9421 3.05825C17.6102 2.50799 17.1422 2.05253 16.5831 1.7358C16.024 1.41907 15.3927 1.25176 14.7501 1.25H4.25011C3.60752 1.25176 2.97623 1.41907 2.41713 1.7358C1.85802 2.05253 1.38996 2.50799 1.05811 3.05825L7.90861 9.9095C8.33128 10.3305 8.90354 10.5669 9.5001 10.5669C10.0967 10.5669 10.6689 10.3305 11.0916 9.9095Z" fill="white"/>
</g>
<defs>
<clipPath id="clip0_52_70">
<rect width="18" height="18" fill="white" transform="translate(0.5 0.5)"/>
</clipPath>
</defs>
</svg>
