<svg width="180" height="70" viewBox="0 0 180 70" fill="none" xmlns="http://www.w3.org/2000/svg">
<path d="M1.65865 68.5349C1.44229 68.3038 1.22594 68.0727 0.949206 67.7097C0.825971 66.8508 0.711487 66.1242 0.708737 65.3971C0.692312 61.0545 0.698451 56.7117 0.707574 52.369C0.708433 51.9606 0.735128 51.539 0.844871 51.1503C0.892139 50.9829 1.18907 50.7729 1.35971 50.7839C1.54803 50.7959 1.72159 51.039 1.90159 51.1815C1.73302 51.2049 1.56446 51.2282 1.60361 51.2104C2.4332 51.1559 3.05509 51.131 3.67697 51.131C61.2057 51.1292 118.734 51.1288 176.263 51.135C177.048 51.1351 177.832 51.22 178.559 51.3901C178.433 51.3054 178.365 51.096 178.298 50.8867C178.576 50.9349 179.046 50.9112 179.096 51.0448C179.25 51.4557 179.29 51.9267 179.292 52.3746C179.304 56.4798 179.292 60.5851 179.302 64.6903C179.309 67.6611 178.248 68.7455 175.283 68.7455C142.898 68.7461 110.512 68.7724 78.126 68.737C52.6369 68.7092 27.1478 68.6051 1.65865 68.5349ZM109.48 62.3868C109.718 62.7745 110.003 63.1413 110.184 63.5539C110.667 64.6547 111.416 65.1201 112.639 64.6935C112.639 61.9403 112.639 59.1879 112.639 56.4135C112.059 56.4135 111.545 56.4135 110.886 56.4135C110.886 58.0935 110.886 59.7085 110.886 61.6853C109.877 60.0591 108.988 58.8088 108.297 57.4576C107.735 56.3579 106.991 56.1309 105.922 56.4603C105.922 59.2383 105.922 61.9933 105.922 64.7312C106.476 64.7312 106.951 64.7312 107.555 64.7312C107.555 62.9925 107.555 61.3281 107.555 59.2986C108.302 60.494 108.845 61.3625 109.48 62.3868ZM79.9892 62.9268C79.9892 63.5338 79.9892 64.1408 79.9892 64.7367C80.609 64.7367 81.0818 64.7367 81.688 64.7367C81.688 63.045 81.688 61.4225 81.688 59.7999C82.7501 61.0452 83.6292 62.3236 84.3605 63.6816C84.9186 64.7177 85.6219 65.0607 86.6787 64.7012C86.6787 61.889 86.6787 59.134 86.6787 56.4226C86.1133 56.4226 85.6344 56.4226 85.0167 56.4226C85.0167 58.1114 85.0167 59.7289 85.0167 61.3465C84.0061 60.0901 83.158 58.8253 82.4281 57.4956C81.877 56.4916 81.2002 56.0391 79.9892 56.5C79.9892 58.5512 79.9892 60.6165 79.9892 62.9268ZM117.325 57.4104C116.17 58.828 116.116 60.4704 116.521 62.1205C117.035 64.2173 119.071 65.2561 121.442 64.7599C123.294 64.3724 124.45 62.7488 124.207 60.8612C122.861 60.8612 121.513 60.8612 120.169 60.8612C120.169 61.2886 120.169 61.6391 120.169 62.1087C120.866 62.1087 121.495 62.1087 122.099 62.1087C122.121 62.2672 122.145 62.321 122.128 62.3412C121.29 63.3604 119.899 63.558 118.958 62.7947C117.861 61.9046 117.719 59.6919 118.691 58.6142C119.741 57.4484 121.587 57.5378 122.24 58.9498C122.771 60.0989 123.478 59.815 124.309 59.6993C123.736 56.285 120.425 55.1529 117.325 57.4104ZM64.0852 64.7768C64.4804 63.7371 65.2543 63.4602 66.3009 63.5982C66.8715 63.6735 67.463 63.5779 68.0403 63.6216C68.2963 63.6409 68.7143 63.763 68.7627 63.9262C69.1532 65.2434 70.1187 64.7478 71.085 64.7539C69.9047 62.0287 68.7905 59.4051 67.61 56.8116C67.4952 56.5594 66.9636 56.3605 66.6391 56.3787C66.317 56.3968 65.8636 56.6466 65.7258 56.9233C65.1724 58.0343 64.7211 59.196 64.2283 60.3374C63.602 61.7881 62.9721 63.2373 62.2921 64.8063C62.9693 64.8063 63.4237 64.8063 64.0852 64.7768ZM55.542 56.3449C54.8154 56.3449 54.0888 56.3449 53.4248 56.3449C53.4248 59.2707 53.4248 62.0197 53.4248 64.7183C54.0327 64.7183 54.5465 64.7183 55.1536 64.7183C55.1536 63.9016 55.1536 63.1748 55.1536 62.3357C55.9425 62.3357 56.6373 62.3511 57.3313 62.3328C59.3419 62.28 60.4157 61.1899 60.3907 59.2454C60.3675 57.4388 59.2113 56.3632 57.27 56.3456C56.7735 56.3411 56.2769 56.3449 55.542 56.3449ZM90.0871 57.6564C90.9102 57.7896 91.7333 57.9228 92.6801 58.076C92.6801 60.2949 92.6801 62.5101 92.6801 64.7411C93.2851 64.7411 93.7609 64.7411 94.3645 64.7411C94.3645 62.4614 94.3645 60.2461 94.3645 57.9759C95.2611 57.9357 96.0332 57.9012 96.8535 57.8645C96.8535 57.3483 96.8535 56.9104 96.8535 56.4079C94.5864 56.4079 92.3707 56.4079 90.0834 56.4079C90.0834 56.7895 90.0834 57.1103 90.0871 57.6564ZM76.0478 56.7918C75.4945 56.6033 74.9412 56.4147 74.3376 56.209C74.3376 59.253 74.3376 61.9776 74.3376 64.7549C74.9072 64.7549 75.4226 64.7549 76.05 64.7549C76.05 62.1479 76.05 59.5885 76.0478 56.7918ZM100.213 58.9646C100.213 60.8965 100.213 62.8284 100.213 64.7577C100.844 64.7577 101.326 64.7577 101.866 64.7577C101.866 61.9535 101.866 59.2019 101.866 56.4209C101.299 56.4209 100.793 56.4209 100.213 56.4209C100.213 57.2393 100.213 57.9792 100.213 58.9646Z" fill="#062A6A"/>
<path d="M1.39586 51.2515C1.56442 51.2281 1.73298 51.2048 1.90155 51.1814C1.72155 51.039 1.54799 50.7958 1.35967 50.7838C1.18903 50.7729 0.8921 50.9828 0.844833 51.1502C0.735089 51.5389 0.708394 51.9605 0.707536 52.369C0.698412 56.7116 0.692274 61.0544 0.708698 65.397C0.711448 66.1241 0.825932 66.8508 0.877241 67.6751C0.579195 66.7426 0.0454214 65.7133 0.0427548 64.6827C-0.008797 44.77 0.00141321 24.8572 2.66111e-08 4.94446C-0.000235463 1.6517 1.56247 0.0627575 4.85378 0.00603211C5.39295 -0.00325878 5.93237 0.000949732 6.47168 0.000957449C62.4766 0.00181577 118.482 0.00285666 174.487 0.00395819C174.735 0.0039659 174.984 0.00047887 175.233 0.00613087C178.438 0.0789084 180 1.67463 180 4.90583C180 24.8186 179.997 44.7314 179.992 64.6442C179.991 67.8082 178.311 69.461 175.151 69.4609C118.399 69.4584 61.6476 69.4632 4.89595 69.428C3.82356 69.4274 2.75147 68.9621 1.66892 68.6242C27.1477 68.605 52.6368 68.7092 78.126 68.737C110.512 68.7723 142.898 68.746 175.283 68.7454C178.248 68.7454 179.309 67.661 179.302 64.6902C179.292 60.585 179.304 56.4797 179.292 52.3745C179.29 51.9266 179.25 51.4556 179.096 51.0447C179.046 50.9111 178.576 50.9348 178.298 50.8866C178.365 51.0959 178.433 51.3053 178.567 51.3903C178.806 50.9056 179.129 50.5454 179.13 50.1847C179.158 35.0444 179.158 19.9042 179.159 4.76389C179.159 2.10513 177.823 0.819726 175.042 0.819619C118.339 0.817363 61.6353 0.826851 4.93182 0.787075C2.53895 0.785396 0.791762 2.30141 0.805542 4.9157C0.882931 19.5993 0.844218 34.2835 0.845197 48.9675C0.845243 49.5482 0.799495 50.1348 0.871657 50.7065C0.89697 50.907 1.21272 51.0709 1.39586 51.2515Z" fill="#EDE2E3"/>
<path d="M1.60353 51.2103C1.21268 51.0709 0.896928 50.9071 0.871616 50.7065C0.799454 50.1349 0.845202 49.5483 0.845156 48.9676C0.844176 34.2835 0.882889 19.5993 0.805501 4.91574C0.79172 2.30145 2.53891 0.785432 4.93178 0.787111C61.6353 0.826888 118.339 0.817399 175.042 0.819655C177.823 0.819762 179.159 2.10516 179.159 4.76392C179.158 19.9042 179.158 35.0445 179.13 50.1847C179.129 50.5454 178.806 50.9056 178.625 51.2657C177.832 51.22 177.048 51.1351 176.263 51.135C118.734 51.1288 61.2056 51.1292 3.67689 51.131C3.05501 51.131 2.43312 51.1558 1.60353 51.2103ZM123.984 6.37065C122.915 6.37065 121.845 6.37065 120.738 6.37065C117.891 19.2946 115.072 32.0928 112.217 45.0534C115.312 45.0534 118.208 45.0113 121.101 45.0773C122.056 45.099 122.369 44.7359 122.554 43.8671C123.954 37.309 125.395 30.7597 126.829 24.2089C127.045 23.222 127.29 22.2416 127.521 21.2582C127.677 21.2667 127.833 21.2752 127.989 21.2837C129.289 29.1672 130.589 37.0506 131.909 45.0541C133.037 45.0541 134.154 45.0064 135.265 45.07C136.082 45.1167 136.516 44.7939 136.93 44.0992C140.412 38.2621 143.939 32.4522 147.449 26.6319C148.344 25.1488 149.213 23.6502 150.126 22.1791C150.266 21.9545 150.584 21.8407 151.103 21.4764C149.371 29.5347 147.723 37.1951 146.033 45.0548C146.538 45.0548 146.935 45.0547 147.333 45.0548C149.698 45.0551 152.067 44.9648 154.425 45.0917C155.733 45.1621 156.18 44.7224 156.447 43.4795C158.802 32.5489 161.227 21.6334 163.626 10.7125C163.934 9.31331 164.217 7.90891 164.54 6.37577C160.043 6.37577 155.735 6.40281 151.428 6.35336C150.547 6.34322 150.119 6.67637 149.691 7.3978C145.925 13.7432 142.118 20.0642 138.32 26.3899C138.142 26.6853 137.925 26.9568 137.596 27.4246C136.464 20.2612 135.374 13.3598 134.27 6.37065C130.859 6.37065 127.545 6.37065 123.984 6.37065ZM17.262 31.7639C14.6631 36.1135 12.0642 40.4631 9.32317 45.0505C13.3733 45.0505 17.0932 45.0679 20.8121 45.017C21.1049 45.013 21.478 44.5848 21.6653 44.2664C22.4631 42.9104 23.1621 41.4948 23.9955 40.1625C24.2192 39.8049 24.7867 39.4633 25.2022 39.4563C28.5603 39.399 31.9199 39.4233 35.2789 39.4228C36.6363 39.4226 37.9937 39.4228 39.4034 39.4228C39.6067 41.0672 39.7594 42.5849 40.0062 44.0871C40.0632 44.4342 40.4369 45.0019 40.6731 45.0061C44.0651 45.0662 47.4585 45.0472 51.0312 45.0472C48.9906 32.0867 46.9718 19.2653 44.9418 6.3722C41.0088 6.3722 37.1991 6.39274 33.39 6.35482C32.6317 6.34726 32.243 6.59507 31.8524 7.25495C27.0395 15.3842 22.1856 23.4892 17.262 31.7639ZM106.306 21.025C102.788 21.025 99.2707 21.025 95.5913 21.025C95.9415 19.4008 96.317 17.9256 96.5622 16.429C96.7262 15.4281 97.1324 15.0985 98.1857 15.1116C103.327 15.1754 108.469 15.1416 113.612 15.1424C114.095 15.1424 114.579 15.1424 115.122 15.1424C115.787 12.1807 116.423 9.34946 117.065 6.48712C116.728 6.42509 116.61 6.38449 116.492 6.38444C107.535 6.38087 98.5782 6.39256 89.6213 6.36083C88.7458 6.35775 88.642 6.81422 88.497 7.47483C86.217 17.8631 83.9153 28.2467 81.6237 38.6324C81.1632 40.7195 80.7238 42.8112 80.2418 45.0538C80.9834 45.0538 81.5563 45.0538 82.1292 45.0538C90.174 45.0541 98.2188 45.0544 106.264 45.0548C108.545 45.0549 108.564 45.0595 109.075 42.8257C109.56 40.7006 110.001 38.5651 110.498 36.262C104.336 36.262 98.3466 36.262 92.229 36.262C92.6278 34.4048 93.0322 32.7186 93.3388 31.0149C93.5059 30.0864 93.8787 29.7487 94.879 29.7605C99.896 29.8196 104.914 29.7889 109.932 29.7898C110.459 29.7898 110.986 29.7898 111.545 29.7898C112.197 26.8027 112.818 23.9647 113.46 21.025C111.026 21.025 108.79 21.025 106.306 21.025ZM61.5633 6.37118C61.1182 6.37118 60.6731 6.37118 60.2191 6.37118C57.3704 19.2981 54.5507 32.0928 51.6945 45.0537C52.2911 45.0537 52.6953 45.0537 53.0995 45.0537C56.0858 45.054 59.0722 45.0541 62.0585 45.0545C66.7454 45.0551 71.4324 45.0686 76.1191 45.0342C76.5206 45.0312 77.2108 44.7834 77.2753 44.526C77.9471 41.8476 78.5182 39.1439 79.158 36.2637C73.934 36.2637 68.8986 36.2637 63.6918 36.2637C65.8962 26.2382 68.0608 16.3933 70.2151 6.59553C70.0223 6.47598 69.9536 6.39628 69.8846 6.39596C67.1888 6.38382 64.4931 6.37893 61.5633 6.37118ZM169.115 10.4018C170.136 11.8492 171.364 12.3034 172.825 11.7735C174.104 11.3097 174.844 10.0282 174.654 8.60661C174.47 7.23263 173.432 6.24018 172.017 6.06167C170.328 5.84864 168.076 7.45659 169.115 10.4018Z" fill="#B40219"/>
<path d="M109.434 62.3089C108.845 61.3625 108.302 60.4939 107.555 59.2985C107.555 61.3281 107.555 62.9925 107.555 64.7311C106.951 64.7311 106.475 64.7311 105.922 64.7311C105.922 61.9933 105.922 59.2382 105.922 56.4603C106.99 56.1308 107.735 56.3578 108.297 57.4575C108.988 58.8087 109.877 60.059 110.886 61.6852C110.886 59.7085 110.886 58.0934 110.886 56.4134C111.545 56.4134 112.059 56.4134 112.639 56.4134C112.639 59.1879 112.639 61.9402 112.639 64.6934C111.416 65.12 110.667 64.6546 110.184 63.5538C110.003 63.1412 109.718 62.7744 109.434 62.3089Z" fill="#F3F8FA"/>
<path d="M79.9893 62.8041C79.9893 60.6163 79.9893 58.5511 79.9893 56.4999C81.2003 56.0389 81.8771 56.4914 82.4282 57.4954C83.1581 58.8251 84.0061 60.09 85.0167 61.3463C85.0167 59.7288 85.0167 58.1112 85.0167 56.4224C85.6345 56.4224 86.1134 56.4224 86.6788 56.4224C86.6788 59.1338 86.6788 61.8889 86.6788 64.701C85.622 65.0606 84.9186 64.7176 84.3606 63.6814C83.6293 62.3234 82.7502 61.045 81.6881 59.7998C81.6881 61.4223 81.6881 63.0448 81.6881 64.7365C81.0818 64.7365 80.609 64.7365 79.9893 64.7365C79.9893 64.1406 79.9893 63.5336 79.9893 62.8041Z" fill="#F3F8FA"/>
<path d="M117.385 57.3396C120.425 55.1529 123.736 56.285 124.309 59.6992C123.478 59.815 122.772 60.0989 122.24 58.9498C121.587 57.5378 119.742 57.4484 118.691 58.6142C117.719 59.6919 117.861 61.9046 118.958 62.7947C119.899 63.558 121.29 63.3604 122.128 62.3412C122.145 62.321 122.121 62.2672 122.099 62.1087C121.495 62.1087 120.866 62.1087 120.169 62.1087C120.169 61.6391 120.169 61.2886 120.169 60.8612C121.513 60.8612 122.861 60.8612 124.207 60.8612C124.45 62.7488 123.294 64.3724 121.442 64.7599C119.071 65.2561 117.035 64.2173 116.521 62.1205C116.116 60.4704 116.17 58.828 117.385 57.3396Z" fill="#F0F6F9"/>
<path d="M63.9815 64.7914C63.4236 64.8061 62.9692 64.8061 62.292 64.8061C62.972 63.2371 63.6019 61.788 64.2282 60.3373C64.7209 59.1959 65.1723 58.0341 65.7257 56.9231C65.8635 56.6464 66.3169 56.3967 66.6389 56.3786C66.9635 56.3604 67.4951 56.5593 67.6099 56.8114C68.7904 59.4049 69.9046 62.0286 71.0849 64.7537C70.1186 64.7477 69.153 65.2433 68.7626 63.926C68.7142 63.7628 68.2962 63.6408 68.0402 63.6214C67.4628 63.5777 66.8714 63.6733 66.3008 63.5981C65.2542 63.46 64.4803 63.737 63.9815 64.7914ZM67.5455 61.0331C67.2948 60.4481 67.0442 59.8632 66.6928 59.0432C66.2269 60.1685 65.8612 61.0517 65.4424 62.0634C66.0248 62.0634 66.394 62.071 66.7627 62.0612C67.1127 62.052 67.4621 62.0245 67.9042 61.9999C67.7877 61.669 67.7079 61.4423 67.5455 61.0331Z" fill="#F0F6F9"/>
<path d="M55.6612 56.3447C56.2769 56.3447 56.7735 56.341 57.27 56.3455C59.2114 56.3631 60.3675 57.4386 60.3908 59.2452C60.4157 61.1897 59.3419 62.2799 57.3313 62.3327C56.6373 62.3509 55.9425 62.3356 55.1536 62.3356C55.1536 63.1747 55.1536 63.9014 55.1536 64.7181C54.5465 64.7181 54.0328 64.7181 53.4248 64.7181C53.4248 62.0195 53.4248 59.2705 53.4248 56.3447C54.0888 56.3447 54.8154 56.3447 55.6612 56.3447ZM58.6073 59.822C59.0208 58.1311 57.7603 57.6251 55.1796 58.0586C55.1796 58.9335 55.1796 59.8161 55.1796 60.6906C57.4243 60.9363 57.602 60.8986 58.6073 59.822Z" fill="#F3F8FA"/>
<path d="M90.0854 57.5436C90.0835 57.1102 90.0835 56.7893 90.0835 56.4077C92.3709 56.4077 94.5866 56.4077 96.8537 56.4077C96.8537 56.9102 96.8537 57.3482 96.8537 57.8643C96.0334 57.901 95.2612 57.9356 94.3646 57.9757C94.3646 60.246 94.3646 62.4613 94.3646 64.741C93.761 64.741 93.2852 64.741 92.6803 64.741C92.6803 62.51 92.6803 60.2947 92.6803 58.0759C91.7334 57.9226 90.9103 57.7895 90.0854 57.5436Z" fill="#F3F8FA"/>
<path d="M76.049 56.9104C76.0501 59.5885 76.0501 62.1479 76.0501 64.7549C75.4227 64.7549 74.9073 64.7549 74.3376 64.7549C74.3376 61.9775 74.3376 59.253 74.3376 56.209C74.9412 56.4147 75.4946 56.6032 76.049 56.9104Z" fill="#F3F8FA"/>
<path d="M100.213 58.8419C100.213 57.9792 100.213 57.2393 100.213 56.4209C100.793 56.4209 101.299 56.4209 101.866 56.4209C101.866 59.2019 101.866 61.9535 101.866 64.7577C101.326 64.7577 100.844 64.7577 100.213 64.7577C100.213 62.8284 100.213 60.8965 100.213 58.8419Z" fill="#F0F6F9"/>
<path d="M124.108 6.37054C127.545 6.37054 130.859 6.37054 134.27 6.37054C135.374 13.3597 136.464 20.2611 137.596 27.4245C137.925 26.9567 138.142 26.6852 138.32 26.3898C142.118 20.0641 145.925 13.7431 149.691 7.39769C150.119 6.67627 150.547 6.34312 151.428 6.35325C155.735 6.40271 160.043 6.37566 164.54 6.37566C164.217 7.9088 163.934 9.31321 163.626 10.7124C161.227 21.6333 158.802 32.5488 156.447 43.4794C156.18 44.7223 155.733 45.162 154.425 45.0916C152.067 44.9647 149.698 45.055 147.333 45.0547C146.935 45.0546 146.538 45.0547 146.033 45.0547C147.723 37.195 149.371 29.5346 151.103 21.4763C150.584 21.8406 150.266 21.9544 150.127 22.179C149.213 23.6501 148.344 25.1487 147.449 26.6318C143.939 32.4521 140.412 38.262 136.93 44.0991C136.516 44.7938 136.082 45.1166 135.265 45.0699C134.154 45.0063 133.037 45.054 131.909 45.054C130.589 37.0505 129.289 29.1671 127.989 21.2836C127.833 21.2751 127.677 21.2666 127.521 21.2581C127.29 22.2415 127.045 23.2219 126.829 24.2088C125.395 30.7596 123.954 37.3089 122.554 43.867C122.369 44.7358 122.056 45.0989 121.101 45.0772C118.208 45.0112 115.312 45.0533 112.217 45.0533C115.072 32.0927 117.891 19.2945 120.738 6.37054C121.845 6.37054 122.915 6.37054 124.108 6.37054Z" fill="#FEFBFB"/>
<path d="M17.3022 31.682C22.1856 23.4891 27.0396 15.3841 31.8524 7.25479C32.2431 6.59492 32.6318 6.34711 33.3901 6.35466C37.1992 6.39258 41.0089 6.37204 44.9419 6.37204C46.9719 19.2651 48.9906 32.0865 51.0313 45.047C47.4586 45.047 44.0652 45.0661 40.6731 45.0059C40.437 45.0017 40.0633 44.4341 40.0063 44.087C39.7595 42.5848 39.6068 41.0671 39.4035 39.4226C37.9937 39.4226 36.6364 39.4225 35.279 39.4226C31.9199 39.4231 28.5604 39.3988 25.2023 39.4561C24.7868 39.4632 24.2193 39.8048 23.9956 40.1623C23.1622 41.4947 22.4631 42.9103 21.6654 44.2662C21.4781 44.5847 21.1049 45.0129 20.8121 45.0169C17.0932 45.0678 13.3734 45.0504 9.32324 45.0504C12.0643 40.4629 14.6632 36.1133 17.3022 31.682ZM37.6605 22.1869C37.4338 20.3997 37.2071 18.6125 36.9384 16.4945C34.2233 21.3674 31.6711 25.9479 29.0685 30.619C32.396 30.619 35.4813 30.619 38.631 30.619C38.3116 27.8241 38.0022 25.1163 37.6605 22.1869Z" fill="#FEFBFC"/>
<path d="M106.43 21.0251C108.79 21.0251 111.026 21.0251 113.46 21.0251C112.818 23.9647 112.198 26.8027 111.545 29.7898C110.986 29.7898 110.459 29.7899 109.932 29.7898C104.914 29.7889 99.8961 29.8196 94.8791 29.7605C93.8789 29.7488 93.506 30.0864 93.3389 31.0149C93.0323 32.7187 92.6279 34.4048 92.2292 36.262C98.3468 36.262 104.336 36.262 110.498 36.262C110.001 38.5652 109.561 40.7006 109.075 42.8257C108.565 45.0595 108.546 45.0549 106.264 45.0548C98.219 45.0544 90.1742 45.0541 82.1294 45.0538C81.5565 45.0538 80.9835 45.0538 80.2419 45.0538C80.724 42.8112 81.1633 40.7195 81.6239 38.6325C83.9155 28.2467 86.2172 17.8632 88.4971 7.47485C88.6422 6.81425 88.746 6.35777 89.6214 6.36086C98.5784 6.39258 107.535 6.3809 116.493 6.38447C116.61 6.38451 116.728 6.42511 117.066 6.48714C116.423 9.34948 115.787 12.1807 115.122 15.1424C114.579 15.1424 114.096 15.1425 113.612 15.1424C108.47 15.1417 103.327 15.1755 98.1859 15.1116C97.1325 15.0985 96.7263 15.4281 96.5624 16.429C96.3172 17.9256 95.9417 19.4008 95.5914 21.0251C99.2709 21.0251 102.788 21.0251 106.43 21.0251Z" fill="#FEFBFB"/>
<path d="M61.6805 6.37204C64.4932 6.37884 67.1889 6.38373 69.8847 6.39587C69.9537 6.39619 70.0224 6.4759 70.2152 6.59544C68.0609 16.3932 65.8963 26.2381 63.6919 36.2637C68.8987 36.2637 73.9341 36.2637 79.1582 36.2637C78.5184 39.1438 77.9473 41.8475 77.2754 44.5259C77.2109 44.7833 76.5208 45.0311 76.1192 45.0341C71.4326 45.0685 66.7455 45.0551 62.0586 45.0544C59.0723 45.054 56.0859 45.0539 53.0996 45.0536C52.6954 45.0536 52.2913 45.0536 51.6946 45.0536C54.5508 32.0927 57.3705 19.298 60.2192 6.37109C60.6732 6.37109 61.1183 6.37109 61.6805 6.37204Z" fill="#FEFAFA"/>
<path d="M169.075 10.3163C168.076 7.45646 170.328 5.8485 172.017 6.06153C173.432 6.24004 174.47 7.23249 174.654 8.60648C174.844 10.028 174.104 11.3096 172.825 11.7734C171.364 12.3033 170.136 11.849 169.075 10.3163ZM170.423 10.8308C170.423 10.8308 170.419 10.8211 170.514 10.9816C171.936 11.6271 173.156 11.3008 173.812 10.1001C174.382 9.05666 174.009 7.69741 172.98 7.06536C171.874 6.38652 170.562 6.66542 169.814 7.7384C169.07 8.80654 169.29 9.92709 170.423 10.8308Z" fill="white"/>
<path d="M67.5868 61.1243C67.7079 61.4423 67.7877 61.669 67.9043 61.9999C67.4622 62.0245 67.1127 62.052 66.7627 62.0612C66.394 62.071 66.0249 62.0634 65.4424 62.0634C65.8613 61.0517 66.2269 60.1685 66.6928 59.0432C67.0442 59.8632 67.2948 60.4481 67.5868 61.1243Z" fill="#062A6A"/>
<path d="M58.5635 59.9129C57.602 60.8987 57.4243 60.9364 55.1797 60.6907C55.1797 59.8162 55.1797 58.9336 55.1797 58.0588C57.7603 57.6252 59.0209 58.1312 58.5635 59.9129Z" fill="#062A6A"/>
<path d="M37.6766 22.2979C38.0021 25.1165 38.3115 27.8242 38.6309 30.6192C35.4812 30.6192 32.3959 30.6192 29.0684 30.6192C31.671 25.9481 34.2232 21.3676 36.9383 16.4946C37.207 18.6127 37.4337 20.3999 37.6766 22.2979Z" fill="#B3081E"/>
<path d="M170.425 10.8425C169.29 9.92726 169.07 8.80671 169.814 7.73857C170.562 6.66558 171.874 6.38669 172.979 7.06552C174.009 7.69758 174.382 9.05683 173.812 10.1003C173.156 11.301 171.935 11.6272 170.471 10.794C170.774 10.3942 171.12 10.1821 171.554 9.91622C171.792 10.1008 172.171 10.395 172.498 10.6489C172.623 10.0072 172.79 9.52736 172.789 9.048C172.787 8.60009 172.742 7.89804 172.478 7.75899C171.955 7.48367 171.269 7.51948 170.578 7.4158C170.521 8.69595 170.473 9.76924 170.425 10.8425Z" fill="#AA1C2F"/>
<path d="M170.424 10.8367C170.473 9.76922 170.521 8.69592 170.578 7.41577C171.269 7.51945 171.955 7.48364 172.478 7.75896C172.742 7.89802 172.787 8.60007 172.788 9.04797C172.79 9.52733 172.623 10.0072 172.498 10.6489C172.171 10.395 171.792 10.1007 171.554 9.9162C171.12 10.1821 170.774 10.3941 170.423 10.7137C170.418 10.8213 170.423 10.8309 170.424 10.8367Z" fill="white"/>
</svg>
