<svg width="156" height="60" viewBox="0 0 156 60" fill="none" xmlns="http://www.w3.org/2000/svg">
<path d="M152.149 0.283618H3.56195C1.75142 0.283618 0.283691 1.75134 0.283691 3.56187V56.4356C0.283691 58.2461 1.75142 59.7138 3.56195 59.7138H152.149C153.959 59.7138 155.427 58.2461 155.427 56.4356V3.56187C155.427 1.75134 153.959 0.283618 152.149 0.283618Z" fill="#B60017"/>
<path d="M152.146 60H3.56443C1.59952 60 0 58.4005 0 56.4356V3.56444C0 1.59953 1.59952 0 3.56443 0H152.149C154.114 0 155.713 1.59953 155.713 3.56444V56.4356C155.713 58.4005 154.114 60 152.149 60H152.146ZM3.56443 0.569801C1.91381 0.569801 0.569797 1.91381 0.569797 3.56444V56.4356C0.569797 58.0862 1.91381 59.4302 3.56443 59.4302H152.149C153.8 59.4302 155.144 58.0862 155.144 56.4356V3.56444C155.144 1.91381 153.8 0.569801 152.149 0.569801H3.56443Z" fill="white"/>
<path d="M0.551874 57.0233V44.2322H155.159V56.6885C155.159 58.1961 153.937 59.4174 152.43 59.4174H2.94605C1.62248 59.4174 0.549316 58.3443 0.549316 57.0207L0.551874 57.0233Z" fill="#022A6A"/>
<path d="M34.6938 38.8715L34.0933 34.0704H20.9394L18.2897 38.8715H8.08704L27.9916 5.51146H38.7948L44.0456 38.8715H34.6938ZM31.9419 14.015L24.9408 26.5684H33.4443L31.9445 14.015H31.9419Z" fill="white"/>
<path d="M44.7458 38.8715L52.097 5.51144H60.7002L54.9997 31.3695H68.404L66.7533 38.8715H44.7484H44.7458Z" fill="white"/>
<path d="M69.4541 38.8715L76.8053 5.51144H101.263L99.5614 13.0134H83.7578L82.608 18.2156H98.1127L96.462 25.7176H80.9574L79.7079 31.3695H95.5626L93.912 38.8715H69.4541Z" fill="white"/>
<path d="M126.419 38.8715L131.271 16.8154L117.966 38.8715H114.164L110.612 16.8154L105.76 38.8715H97.157L104.508 5.51144H116.162L119.062 23.9673L130.116 5.51144H142.37L135.019 38.8715H126.416H126.419Z" fill="white"/>
<path d="M52.2169 51.3304V51.3355C52.2169 52.7613 51.1182 53.8472 49.6925 53.8472H47.5461V55.9629H46.1587V48.7522H49.6925C51.1182 48.7522 52.2169 49.9071 52.2169 51.3329V51.3304ZM50.8295 51.2971C50.8295 50.6405 50.2367 50.0272 49.58 50.0272H47.5461V52.5722H49.58C50.2367 52.5722 50.8295 51.9564 50.8295 51.3023V51.2971Z" fill="white"/>
<path d="M61.3874 55.9629H59.8697L59.4276 54.9433H55.9143L55.4799 55.9629H53.9622L57.0794 48.7522H58.2753L61.3925 55.9629H61.3874ZM58.8783 53.6683L57.7463 51.0544H57.6032L56.4739 53.6683H58.8783Z" fill="white"/>
<path d="M64.3131 55.9603V48.7497H65.7006V55.9603H64.3131Z" fill="white"/>
<path d="M75.0293 48.7522V55.9629H73.6266L70.7418 51.3023H70.5911V55.9629H69.2036V48.7522H70.5987L73.4886 53.4205H73.6393V48.7522H75.0268H75.0293Z" fill="white"/>
<path d="M83.7782 48.7497V50.0247H81.5757V55.9603H80.1882V50.0247H77.9832V48.7497H83.7782Z" fill="white"/>
<path d="M86.7319 55.9603V48.7497H88.1194V55.9603H86.7319Z" fill="white"/>
<path d="M97.4483 48.7522V55.9629H96.0455L93.1608 51.3023H93.01V55.9629H91.6226V48.7522H93.0177L95.9075 53.4205H96.0583V48.7522H97.4457H97.4483Z" fill="white"/>
<path d="M103.961 52.6361H107.564V53.0474C107.533 53.2544 107.498 53.4511 107.441 53.6479C107.048 55.043 106.008 56.0318 104.145 56.037C101.748 56.0344 100.68 54.3914 100.68 52.3575C100.68 50.3236 101.771 48.6781 104.145 48.6756C106.24 48.6781 107.329 49.9583 107.564 51.66H106.154C105.939 50.643 105.167 49.9506 104.143 49.9506C102.901 49.9506 102.065 50.9675 102.065 52.3575C102.065 53.7475 102.901 54.7619 104.143 54.7619C105.195 54.7619 105.617 54.2943 105.947 53.6479H103.959V52.6361H103.961Z" fill="white"/>
<path d="M148.413 5.2585C149.175 5.21506 149.813 5.42969 150.345 5.92794C150.779 6.33421 151.037 6.83758 151.104 7.43037C151.191 8.19947 150.971 8.87403 150.439 9.43871C150.028 9.87565 149.517 10.1312 148.919 10.195C148.158 10.2768 147.493 10.0494 146.936 9.52815C146.525 9.14232 146.275 8.6645 146.19 8.10493C146.085 7.39715 146.254 6.75325 146.701 6.19367C147.146 5.63154 147.736 5.32748 148.413 5.2585ZM148.83 9.82454C149.366 9.76322 149.803 9.55881 150.158 9.18576C150.611 8.70795 150.797 8.13559 150.728 7.48403C150.675 6.99088 150.465 6.56673 150.107 6.22434C149.645 5.77975 149.085 5.58555 148.446 5.64177C147.859 5.69543 147.373 5.9586 147.003 6.42109C146.635 6.88101 146.489 7.41248 146.561 7.99506C146.619 8.48309 146.832 8.90213 147.187 9.23941C147.654 9.68401 148.214 9.87053 148.83 9.82199V9.82454Z" fill="white"/>
<path d="M148.073 9.06564H147.693V6.3955C147.693 6.3955 147.703 6.3955 147.708 6.3955C148.022 6.3955 148.339 6.3955 148.653 6.3955C148.738 6.3955 148.819 6.40828 148.901 6.43128C149.101 6.48749 149.264 6.59991 149.392 6.76089C149.456 6.8401 149.504 6.92698 149.537 7.02152C149.563 7.08795 149.581 7.15694 149.589 7.22849C149.594 7.27959 149.596 7.33069 149.596 7.3818C149.594 7.46356 149.581 7.54533 149.555 7.62198C149.466 7.90816 149.279 8.1049 149.009 8.22499C148.998 8.2301 148.988 8.23265 148.975 8.23777C149.18 8.51372 149.382 8.78712 149.583 9.06308C149.576 9.06308 149.573 9.06308 149.568 9.06308C149.42 9.06308 149.274 9.06308 149.126 9.06308C149.116 9.06308 149.108 9.06053 149.101 9.05031C148.919 8.80501 148.738 8.55972 148.559 8.31442C148.551 8.3042 148.543 8.29909 148.528 8.29909C148.383 8.29909 148.237 8.29909 148.091 8.29909C148.086 8.29909 148.078 8.29909 148.071 8.29909V9.06308L148.073 9.06564ZM148.073 6.77622V7.92093H148.094C148.219 7.92093 148.344 7.92093 148.469 7.92093C148.543 7.92093 148.62 7.92093 148.694 7.91837C148.763 7.91837 148.827 7.89794 148.888 7.86983C149.047 7.79573 149.152 7.67053 149.198 7.50189C149.218 7.42779 149.223 7.35113 149.21 7.27192C149.203 7.22082 149.192 7.16716 149.169 7.12117C149.067 6.90142 148.891 6.78644 148.651 6.77878C148.462 6.77367 148.273 6.77878 148.084 6.77878C148.081 6.77878 148.078 6.77878 148.073 6.77878V6.77622Z" fill="white"/>
</svg>
