<svg width="18" height="19" viewBox="0 0 18 19" fill="none" xmlns="http://www.w3.org/2000/svg">
<path d="M4.3869e-05 5.18C4.3869e-05 10.91 7.59754 18.5 13.32 18.5C14.5725 18.5 15.7425 18.0275 16.605 17.165L17.355 16.3025C18.225 15.4325 18.225 13.9625 17.3175 13.055C17.295 13.0325 15.4875 11.645 15.4875 11.645C14.5875 10.79 13.17 10.79 12.2775 11.645L11.1825 12.5225C8.78254 11.5025 7.08004 9.7925 5.98504 7.31L6.85504 6.215C7.71754 5.3225 7.71754 3.8975 6.85504 3.005C6.85504 3.005 5.46754 1.1975 5.44504 1.175C4.53754 0.2675 3.06754 0.2675 2.16004 1.175L1.37254 1.8575C0.472544 2.75 4.3869e-05 3.92 4.3869e-05 5.1725V5.18Z" fill="white"/>
</svg>
