<svg width="14" height="12" viewBox="0 0 14 12" fill="none" xmlns="http://www.w3.org/2000/svg">
<path d="M7.65075 11.2342C7.56484 11.1489 7.49664 11.0476 7.4501 10.9359C7.40356 10.8242 7.3796 10.7043 7.3796 10.5833C7.3796 10.4623 7.40356 10.3425 7.4501 10.2308C7.49664 10.1191 7.56484 10.0177 7.65075 9.93249L10.6666 6.91666L1.49992 6.91666C1.2568 6.91666 1.02365 6.82008 0.851738 6.64817C0.67983 6.47627 0.583252 6.24311 0.583252 5.99999C0.583252 5.75688 0.679829 5.52372 0.851738 5.35181C1.02365 5.1799 1.2568 5.08333 1.49992 5.08333L10.6666 5.08333L7.65075 2.06749C7.56483 1.98228 7.49664 1.88089 7.4501 1.76919C7.40356 1.65748 7.3796 1.53767 7.3796 1.41666C7.3796 1.29565 7.40356 1.17584 7.4501 1.06413C7.49664 0.952427 7.56483 0.851043 7.65075 0.765827C7.8225 0.595097 8.05483 0.499267 8.297 0.499267C8.53917 0.499267 8.7715 0.595097 8.94325 0.765827L12.8758 4.70749C13.22 5.04973 13.4145 5.51455 13.4166 5.99999C13.4121 6.48226 13.2178 6.94334 12.8758 7.28333L8.94325 11.225C8.77272 11.3969 8.54107 11.4944 8.29889 11.4961C8.05672 11.4979 7.82371 11.4037 7.65075 11.2342Z" fill="#B40219"/>
</svg>
