<svg width="20" height="21" viewBox="0 0 20 21" fill="none" xmlns="http://www.w3.org/2000/svg">
<path fill-rule="evenodd" clip-rule="evenodd" d="M10 0.5C4.4775 0.5 0 4.9775 0 10.5C0 16.0225 4.4775 20.5 10 20.5C15.5225 20.5 20 16.0225 20 10.5C20 4.9775 15.5225 0.5 10 0.5ZM14.635 7.30083C14.485 8.88167 13.8333 12.7192 13.5025 14.49C13.3625 15.24 13.0858 15.4908 12.8192 15.515C12.2383 15.5683 11.7975 15.1308 11.235 14.7625C10.355 14.1858 9.8575 13.8267 9.00333 13.2633C8.01583 12.6125 8.65583 12.255 9.21833 11.6708C9.36583 11.5175 11.9242 9.19 11.9742 8.97917C11.98 8.9525 11.9867 8.85417 11.9275 8.8025C11.8683 8.75083 11.7825 8.76833 11.7208 8.7825C11.6325 8.8025 10.2267 9.73167 7.5025 11.57C7.10333 11.8442 6.74167 11.9775 6.4175 11.9708C6.06083 11.9633 5.37417 11.7692 4.86333 11.6025C4.2375 11.3992 3.73917 11.2908 3.7825 10.9458C3.805 10.7658 4.0525 10.5817 4.52583 10.3933C7.44083 9.12333 9.385 8.28583 10.3575 7.88083C13.135 6.72583 13.7117 6.525 14.0883 6.51833C14.56 6.51167 14.6733 6.90083 14.635 7.30083Z" fill="#1D55B7"/>
</svg>
