<svg width="16" height="24" viewBox="0 0 16 24" fill="none" xmlns="http://www.w3.org/2000/svg">
<path d="M8 16C6.41775 16 4.87103 15.5308 3.55544 14.6518C2.23985 13.7727 1.21447 12.5233 0.608967 11.0615C0.00346625 9.59966 -0.15496 7.99113 0.153721 6.43928C0.462403 4.88743 1.22433 3.46197 2.34315 2.34315C3.46197 1.22433 4.88743 0.462403 6.43928 0.153721C7.99113 -0.15496 9.59966 0.00346625 11.0615 0.608967C12.5233 1.21447 13.7727 2.23985 14.6518 3.55544C15.5308 4.87103 16 6.41775 16 8C15.9976 10.121 15.154 12.1545 13.6542 13.6542C12.1545 15.154 10.121 15.9976 8 16ZM8 18C5.83339 17.999 3.72645 17.2901 2 15.981V21.5C2 21.971 2.13301 22.4323 2.38374 22.831C2.63446 23.2296 2.99269 23.5494 3.41717 23.7534C3.84164 23.9573 4.31511 24.0373 4.78303 23.984C5.25095 23.9307 5.69429 23.7463 6.062 23.452L7.688 22.152C7.7766 22.0813 7.88662 22.0427 8 22.0427C8.11339 22.0427 8.2234 22.0813 8.312 22.152L9.938 23.452C10.3057 23.7463 10.7491 23.9307 11.217 23.984C11.6849 24.0373 12.1584 23.9573 12.5828 23.7534C13.0073 23.5494 13.3656 23.2296 13.6163 22.831C13.867 22.4323 14 21.971 14 21.5V15.981C12.2735 17.2899 10.1666 17.9989 8 18Z" fill="#B40219"/>
</svg>
