<svg width="24" height="24" viewBox="0 0 24 24" fill="none" xmlns="http://www.w3.org/2000/svg">
<path d="M17.829 7.76205C17.688 7.76205 17.547 7.71705 17.429 7.62905C17.202 7.45905 17.108 7.16505 17.193 6.89505L17.82 4.88405L16.235 3.59405C16.022 3.41305 15.944 3.11805 16.041 2.85605C16.137 2.59405 16.387 2.41905 16.667 2.41905H18.668L19.376 0.432047C19.473 0.171047 19.722 -0.00195312 20.001 -0.00195312C20.28 -0.00195312 20.529 0.171047 20.626 0.432047L21.334 2.41905H23.335C23.615 2.41905 23.865 2.59405 23.961 2.85705C24.057 3.12005 23.978 3.41505 23.764 3.59605L22.187 4.88105L22.839 6.86805C22.928 7.13705 22.838 7.43305 22.613 7.60605C22.388 7.77905 22.079 7.79105 21.842 7.63705L20.006 6.44105L18.201 7.64905C18.089 7.72405 17.958 7.76205 17.829 7.76205ZM9.82898 10.762C9.68798 10.762 9.54698 10.717 9.42898 10.629C9.20197 10.459 9.10798 10.165 9.19298 9.89505L9.81997 7.88405L8.23497 6.59405C8.02197 6.41305 7.94398 6.11805 8.04098 5.85605C8.13698 5.59405 8.38698 5.41905 8.66698 5.41905H10.668L11.376 3.43205C11.473 3.17105 11.722 2.99805 12.001 2.99805C12.28 2.99805 12.529 3.17105 12.626 3.43205L13.334 5.41905H15.335C15.615 5.41905 15.865 5.59405 15.961 5.85705C16.057 6.12005 15.978 6.41505 15.764 6.59605L14.187 7.88105L14.839 9.86805C14.928 10.137 14.838 10.433 14.613 10.606C14.388 10.779 14.079 10.791 13.842 10.637L12.006 9.44105L10.201 10.649C10.089 10.724 9.95798 10.762 9.82898 10.762ZM1.82897 13.762C1.68797 13.762 1.54697 13.717 1.42897 13.629C1.20197 13.459 1.10797 13.165 1.19297 12.895L1.81997 10.884L0.234975 9.59405C0.0219748 9.41305 -0.0560252 9.11805 0.0409748 8.85605C0.136975 8.59405 0.386975 8.41905 0.666975 8.41905H2.66797L3.37597 6.43205C3.47297 6.17105 3.72197 5.99805 4.00097 5.99805C4.27997 5.99805 4.52897 6.17105 4.62597 6.43205L5.33397 8.41905H7.33497C7.61497 8.41905 7.86497 8.59405 7.96097 8.85705C8.05697 9.12005 7.97797 9.41505 7.76397 9.59605L6.18697 10.881L6.83897 12.868C6.92798 13.137 6.83797 13.433 6.61297 13.606C6.38797 13.779 6.07897 13.791 5.84197 13.637L4.00597 12.441L2.20097 13.649C2.08897 13.724 1.95897 13.762 1.82997 13.762H1.82897ZM21.5 10H19.5C18.119 10 17 11.119 17 12.5V21.5C17 22.881 18.119 24 19.5 24H21.5C22.881 24 24 22.881 24 21.5V12.5C24 11.119 22.881 10 21.5 10ZM3.99997 16H2.49997C1.11897 16 -2.51586e-05 17.119 -2.51586e-05 18.5V21.5C-2.51586e-05 22.881 1.11897 24 2.49997 24H3.99997C5.38097 24 6.49997 22.881 6.49997 21.5V18.5C6.49997 17.119 5.38097 16 3.99997 16ZM12.5 13H11C9.61897 13 8.49998 14.119 8.49998 15.5V21.5C8.49998 22.881 9.61897 24 11 24H12.5C13.881 24 15 22.881 15 21.5V15.5C15 14.119 13.881 13 12.5 13Z" fill="#062A6A"/>
</svg>
