<svg width="24" height="24" viewBox="0 0 24 24" fill="none" xmlns="http://www.w3.org/2000/svg">
<path d="M9 9H2C0.897 9 0 8.103 0 7V5C0 2.243 2.243 0 5 0H9C10.103 0 11 0.897 11 2V7C11 8.103 10.103 9 9 9ZM19 24H15C13.897 24 13 23.103 13 22V17C13 15.897 13.897 15 15 15H22C23.103 15 24 15.897 24 17V19C24 21.757 21.757 24 19 24ZM22 13H15C13.897 13 13 12.103 13 11V2C13 0.897 13.897 0 15 0H19C21.757 0 24 2.243 24 5V11C24 12.103 23.103 13 22 13ZM9 24H5C2.243 24 0 21.757 0 19V13C0 11.897 0.897 11 2 11H9C10.103 11 11 11.897 11 13V22C11 23.103 10.103 24 9 24Z" fill="#B40219"/>
</svg>
