<svg width="20" height="24" viewBox="0 0 20 24" fill="none" xmlns="http://www.w3.org/2000/svg">
<path d="M16.581 2.14L10.316 0.0509967C10.1109 -0.0173244 9.88913 -0.0173244 9.684 0.0509967L3.418 2.14C2.42209 2.47105 1.55582 3.1075 0.942241 3.95894C0.328659 4.81038 -0.00103107 5.83351 2.42237e-06 6.883V12C2.42237e-06 19.563 9.2 23.74 9.594 23.914C9.72182 23.9708 9.86014 24.0001 10 24.0001C10.1399 24.0001 10.2782 23.9708 10.406 23.914C10.8 23.74 20 19.563 20 12V6.883C20.001 5.83338 19.6711 4.81016 19.0574 3.95871C18.4436 3.10725 17.5771 2.47088 16.581 2.14Z" fill="#B40219"/>
</svg>
