<svg width="24" height="24" viewBox="0 0 24 24" fill="none" xmlns="http://www.w3.org/2000/svg">
<path d="M4.57903 4.90199C4.41303 4.38499 4.51203 3.82199 4.84303 3.39599C5.82103 2.13099 8.50003 -0.0100098 12.325 -0.0100098C14.78 -0.0100098 16.777 1.93099 16.964 4.37999C15.319 3.59499 13.588 3.49899 12 3.49899C11.447 3.49899 11 3.94699 11 4.49899C11 5.05099 11.447 5.49899 12 5.49899C13.637 5.49899 15.227 5.60699 16.659 6.50699C15.968 8.25699 14.29 9.49899 12.326 9.49899C10.658 9.49899 9.24803 8.40199 8.00303 7.43499C7.17003 6.78799 6.38303 6.17699 5.64903 5.95699C5.14203 5.80499 4.74303 5.41099 4.58003 4.90099L4.57903 4.90199ZM16.658 6.50799C17.203 6.85099 17.727 7.29799 18.218 7.91299C18.416 8.15999 18.706 8.28799 19 8.28799C19.219 8.28799 19.439 8.21599 19.624 8.06899C20.055 7.72399 20.125 7.09499 19.78 6.66399C18.904 5.56999 17.949 4.85199 16.962 4.38099C16.971 4.50299 16.998 4.62099 16.998 4.74599C16.998 5.36999 16.872 5.96299 16.657 6.50899L16.658 6.50799ZM22.905 11.935C22.675 11.446 22.221 11.104 21.691 11.02C21.144 10.936 20.582 11.128 20.195 11.541C19.639 12.133 18.874 12.665 18.063 13.227C16.754 14.135 15.402 15.074 14.608 16.477C13.988 17.574 13.835 18.845 14.177 20.056C14.326 20.584 14.576 21.062 14.886 21.496C16.692 20.72 17.741 19.252 18.145 17.916C18.305 17.387 18.86 17.088 19.391 17.248C19.92 17.408 20.219 17.966 20.059 18.494C19.575 20.095 18.403 21.821 16.478 22.919C17.2 23.31 17.979 23.498 18.75 23.498C20.419 23.498 22.041 22.629 22.912 21.089C24.763 17.819 23.777 13.797 22.904 11.935H22.905ZM14.886 21.496C14.302 21.747 13.642 21.928 12.896 22.005C12.346 22.062 11.948 22.554 12.005 23.103C12.058 23.617 12.492 23.999 12.998 23.999C13.032 23.999 13.067 23.997 13.102 23.994C14.426 23.856 15.535 23.457 16.477 22.919C16.465 22.913 16.453 22.908 16.441 22.902C15.808 22.552 15.291 22.065 14.886 21.496ZM9.46403 19.308C9.39703 19.948 9.33403 20.552 9.34203 21.138C9.34503 21.394 9.38003 21.654 9.44603 21.914C9.59203 22.477 9.44403 23.068 9.05003 23.489C8.74103 23.819 8.31703 23.999 7.87403 23.999C7.77203 23.999 7.67003 23.99 7.56703 23.97C6.33903 23.737 2.19603 22.677 0.445028 18.818C-0.544972 16.637 0.234028 14.097 2.15603 12.812C2.12403 13.053 2.09203 13.293 2.09203 13.521C2.08003 13.712 2.03803 15.452 4.29303 17.706C4.48803 17.901 4.74403 17.999 5.00003 17.999C5.25603 17.999 5.51203 17.901 5.70703 17.706C6.09803 17.315 6.09803 16.683 5.70703 16.292C4.11903 14.705 4.08903 13.623 4.09003 13.584C4.09003 13.112 4.20403 12.584 4.41003 12.024C5.07803 11.973 5.75303 12.052 6.40003 12.291C7.60103 12.735 8.55703 13.626 9.09003 14.802C9.77703 16.312 9.61703 17.834 9.46403 19.306V19.308ZM4.41003 12.024C4.58603 11.544 4.82703 11.042 5.14603 10.522C5.43503 10.051 5.28703 9.43599 4.81603 9.14699C4.34403 8.85699 3.72903 9.00599 3.44103 9.47699C2.71503 10.661 2.29403 11.787 2.15603 12.812C2.35403 12.68 2.55203 12.547 2.77403 12.443C3.29803 12.199 3.85103 12.067 4.41003 12.024Z" fill="#B40219"/>
</svg>
