<svg width="20" height="21" viewBox="0 0 20 21" fill="none" xmlns="http://www.w3.org/2000/svg">
<path d="M14.1667 8.86583C10.9508 8.86583 8.33333 11.4825 8.33333 14.6992C8.33333 17.8975 10.9508 20.5 14.1667 20.5C17.3825 20.5 20 17.8833 20 14.6667C20 11.4683 17.3825 8.86583 14.1667 8.86583ZM14.1667 18.8333C11.8692 18.8333 10 16.9783 10 14.6992C10 12.4017 11.8692 10.5325 14.1667 10.5325C16.4642 10.5325 18.3333 12.3875 18.3333 14.6667C18.3333 16.9642 16.4642 18.8333 14.1667 18.8333ZM15.5892 14.9108C15.915 15.2367 15.915 15.7633 15.5892 16.0892C15.4267 16.2517 15.2133 16.3333 15 16.3333C14.7867 16.3333 14.5733 16.2517 14.4108 16.0892L13.5775 15.2558C13.4208 15.0992 13.3333 14.8875 13.3333 14.6667V13C13.3333 12.54 13.7058 12.1667 14.1667 12.1667C14.6275 12.1667 15 12.54 15 13V14.3217L15.5892 14.9108ZM20 6.33333V8C20 8.46 19.6275 8.83333 19.1667 8.83333C18.7058 8.83333 18.3333 8.46 18.3333 8V6.33333C18.3333 4.955 17.2117 3.83333 15.8333 3.83333H4.16667C2.78833 3.83333 1.66667 4.955 1.66667 6.33333V7.16667H9.16667C9.62667 7.16667 10 7.54 10 8C10 8.46 9.62667 8.83333 9.16667 8.83333H1.66667V16.3333C1.66667 17.7117 2.78833 18.8333 4.16667 18.8333H7.5C7.96 18.8333 8.33333 19.2067 8.33333 19.6667C8.33333 20.1267 7.96 20.5 7.5 20.5H4.16667C1.86917 20.5 0 18.6308 0 16.3333V6.33333C0 4.03583 1.86917 2.16667 4.16667 2.16667H5V1.33333C5 0.873333 5.37333 0.5 5.83333 0.5C6.29333 0.5 6.66667 0.873333 6.66667 1.33333V2.16667H13.3333V1.33333C13.3333 0.873333 13.7058 0.5 14.1667 0.5C14.6275 0.5 15 0.873333 15 1.33333V2.16667H15.8333C18.1308 2.16667 20 4.03583 20 6.33333Z" fill="#1D55B7"/>
</svg>
