<svg width="24" height="23" viewBox="0 0 24 23" fill="none" xmlns="http://www.w3.org/2000/svg">
<path d="M16.729 16.831C17.315 17.417 17.315 18.367 16.729 18.952C16.143 19.538 15.193 19.538 14.608 18.952L9.974 14.318C9.583 13.927 8.95 13.927 8.56 14.318C8.169 14.709 8.169 15.342 8.56 15.732L12.771 19.943C13.357 20.529 13.357 21.479 12.771 22.064C12.185 22.65 11.235 22.65 10.65 22.064L5.977 17.391C3.021 14.507 0 10.662 0 7C0 3.14 2.916 0 6.5 0C8.273 0 9.631 0.662 10.665 1.397L7.026 5.005C6.364 5.666 6 6.546 6 7.481C6 8.416 6.364 9.295 7.024 9.955C7.685 10.617 8.564 10.981 9.5 10.981C9.926 10.981 10.337 10.896 10.725 10.752L16.73 16.832L16.729 16.831ZM14.421 7.525L12.329 9.603L18.439 15.621C19.025 16.207 19.975 16.207 20.56 15.621C21.456 14.725 20.689 13.733 20.689 13.733L14.421 7.525ZM17.457 0.058C15.823 0.068 14.271 0.778 13.075 1.892L8.438 6.498C7.852 7.084 7.852 8.034 8.438 8.619C9.024 9.205 9.974 9.205 10.559 8.619L13.056 6.139C13.836 5.364 15.094 5.364 15.875 6.139L22.199 12.417C23.39 10.495 23.998 8.695 23.998 7.058C23.998 3.198 21.04 0.058 17.456 0.058H17.457Z" fill="white"/>
</svg>
